<svg width="23" height="19" viewBox="0 0 23 19" fill="none" xmlns="http://www.w3.org/2000/svg">
<path d="M18.3697 15.0951C17.8251 15.1866 17.4577 15.7023 17.5492 16.2469C17.6407 16.7916 18.1564 17.1589 18.7011 17.0674L18.3697 15.0951ZM17.1421 8.93017C16.5898 8.93017 16.1421 9.37788 16.1421 9.93017C16.1421 10.4825 16.5898 10.9302 17.1421 10.9302V8.93017ZM16.1039 7.44298C17.6954 7.44298 18.9851 6.15252 18.9851 4.56124H16.9851C16.9851 5.04848 16.5903 5.44298 16.1039 5.44298V7.44298ZM13.2227 4.56124C13.2227 6.15252 14.5124 7.44298 16.1039 7.44298V5.44298C15.6175 5.44298 15.2227 5.04848 15.2227 4.56124H13.2227ZM16.1039 1.6795C14.5124 1.6795 13.2227 2.96997 13.2227 4.56124H15.2227C15.2227 4.07401 15.6175 3.6795 16.1039 3.6795V1.6795ZM18.9851 4.56124C18.9851 2.96997 17.6954 1.6795 16.1039 1.6795V3.6795C16.5903 3.6795 16.9851 4.07401 16.9851 4.56124H18.9851ZM20.625 13.0596C20.625 13.5521 20.4687 13.9624 20.1586 14.2878C19.8394 14.6226 19.2854 14.9413 18.3697 15.0951L18.7011 17.0674C19.9246 16.8619 20.9154 16.3925 21.6063 15.6677C22.3061 14.9336 22.625 14.0127 22.625 13.0596H20.625ZM17.1421 10.9302C18.2006 10.9302 19.1158 11.2313 19.7396 11.6667C20.3667 12.1045 20.625 12.6126 20.625 13.0596H22.625C22.625 11.7783 21.8798 10.7217 20.8844 10.0268C19.8857 9.32959 18.5595 8.93017 17.1421 8.93017V10.9302ZM9.67035 4.35802C9.67035 5.58386 8.85896 6.28453 8.00331 6.28453V8.28453C10.0936 8.28453 11.6703 6.55372 11.6703 4.35802H9.67035ZM8.00331 6.28453C7.14766 6.28453 6.33627 5.58386 6.33627 4.35802H4.33627C4.33627 6.55372 5.91303 8.28453 8.00331 8.28453V6.28453ZM6.33627 4.35802C6.33627 3.74587 6.54398 3.33007 6.81464 3.06684C7.09146 2.79761 7.49924 2.625 8.00331 2.625V0.625C7.0344 0.625 6.10867 0.963524 5.42021 1.63311C4.72559 2.3087 4.33627 3.25941 4.33627 4.35802H6.33627ZM8.00331 2.625C8.50737 2.625 8.91516 2.79761 9.19198 3.06684C9.46263 3.33008 9.67035 3.74587 9.67035 4.35802H11.6703C11.6703 3.25941 11.281 2.3087 10.5864 1.63311C9.89795 0.963524 8.97221 0.625 8.00331 0.625V2.625ZM13.9541 14.1889C13.9541 14.5993 13.7425 15.101 12.8715 15.5551C11.9674 16.0265 10.4529 16.375 8.16453 16.375L8.16453 18.375C10.6082 18.375 12.4885 18.0103 13.7961 17.3285C15.1369 16.6295 15.9541 15.5381 15.9541 14.1889H13.9541ZM8.16453 16.375C5.87614 16.375 4.36162 16.0265 3.45754 15.5551C2.58655 15.101 2.375 14.5993 2.375 14.1889H0.375C0.375 15.5381 1.19216 16.6295 2.53291 17.3285C3.84058 18.0103 5.72081 18.375 8.16453 18.375L8.16453 16.375ZM2.375 14.1889C2.375 13.9254 2.64082 13.3797 3.78843 12.8412C4.85669 12.3399 6.40279 12.0027 8.16453 12.0027V10.0027C6.17651 10.0027 4.32785 10.3788 2.93878 11.0306C1.62906 11.6453 0.375 12.6927 0.375 14.1889H2.375ZM8.16453 12.0027C9.92626 12.0027 11.4724 12.3399 12.5406 12.8412C13.6882 13.3797 13.9541 13.9254 13.9541 14.1889H15.9541C15.9541 12.6927 14.7 11.6453 13.3903 11.0306C12.0012 10.3788 10.1525 10.0027 8.16453 10.0027V12.0027Z" fill="black"/>
</svg>
